<!-- Generated by IcoMoon.io -->
<svg version="1.1" xmlns="http://www.w3.org/2000/svg" width="42" height="32" viewBox="0 0 42 32">
<title>logo</title>
<path fill="none" stroke="#fff" stroke-linejoin="miter" stroke-linecap="butt" stroke-miterlimit="4" stroke-width="1.3913" d="M26.092 12.522c0 3.241-1.577 6.225-3.216 8.441-0.814 1.1-1.629 1.991-2.239 2.607-0.213 0.214-0.4 0.395-0.554 0.539-0.153-0.144-0.341-0.324-0.554-0.539-0.611-0.616-1.426-1.507-2.239-2.607-1.639-2.215-3.216-5.199-3.216-8.441s1.577-6.225 3.216-8.441c0.814-1.1 1.629-1.992 2.239-2.607 0.213-0.214 0.4-0.395 0.554-0.539 0.154 0.144 0.341 0.324 0.554 0.539 0.611 0.616 1.426 1.507 2.239 2.607 1.639 2.216 3.216 5.199 3.216 8.441z"></path>
<path fill="none" stroke="#fff" stroke-linejoin="miter" stroke-linecap="butt" stroke-miterlimit="4" stroke-width="1.3913" d="M17.471 12.215c2.033 2.32 2.828 5.702 3.095 8.601 0.132 1.437 0.132 2.725 0.099 3.653-0.013 0.356-0.031 0.658-0.047 0.894-0.207 0.019-0.472 0.040-0.783 0.054-0.813 0.038-1.942 0.039-3.201-0.112-2.541-0.305-5.504-1.213-7.537-3.532s-2.828-5.702-3.095-8.601c-0.132-1.437-0.132-2.725-0.098-3.653 0.013-0.356 0.031-0.658 0.047-0.894 0.207-0.019 0.472-0.039 0.783-0.054 0.813-0.038 1.942-0.039 3.201 0.112 2.541 0.305 5.504 1.212 7.537 3.532z"></path>
<path fill="none" stroke="#fff" stroke-linejoin="miter" stroke-linecap="butt" stroke-miterlimit="4" stroke-width="1.3913" d="M24.555 12.215c-2.033 2.32-2.828 5.702-3.095 8.601-0.132 1.437-0.132 2.725-0.099 3.653 0.013 0.356 0.031 0.658 0.047 0.894 0.207 0.019 0.472 0.040 0.783 0.054 0.813 0.038 1.942 0.039 3.201-0.112 2.541-0.305 5.504-1.213 7.537-3.532s2.828-5.702 3.095-8.601c0.132-1.437 0.132-2.725 0.098-3.653-0.013-0.356-0.031-0.658-0.047-0.894-0.207-0.019-0.471-0.039-0.783-0.054-0.813-0.038-1.942-0.039-3.201 0.112-2.541 0.305-5.504 1.212-7.537 3.532z"></path>
</svg>
